<svg id="Camada_4" data-name="Camada 4" xmlns="http://www.w3.org/2000/svg" viewBox="0 0 60.89 51.12"><defs><style>.cls-1,.cls-2{fill:#0fc3e8;}.cls-2{font-size:15.04px;font-family:Amarillo;}</style></defs><path class="cls-1" d="M183.32,315c0-2.73-.19-5.46-.14-8.19a.16.16,0,0,0,0-.09,3.35,3.35,0,0,0-1.09-2.75,3.06,3.06,0,0,0-2.24-.61.28.28,0,0,0-.13,0c-4.22,0-8.42-.1-12.64-.23s-8.42,0-12.64.17-8.49.29-12.74.25c-2.19,0-4.38-.07-6.58-.11-2,0-4.07-.14-6.1,0h0a4.68,4.68,0,0,0-2.84.51l-.11.06a2.19,2.19,0,0,0-1,1.48,3.78,3.78,0,0,0-.13,1.07v.12c-.37,5.2-.45,10.42-.39,15.62,0,2.61,0,5.2-.07,7.81s.21,5.1.3,7.65c-.09,1.86,0,3.94,1.76,4.7a7.36,7.36,0,0,0,3.43.15c.59-.06,1.23-.11,1.88-.15s1.47-.06,2.21-.05c2.08,0,4.16.17,6.24.19s4.33,0,6.49-.07h.15a18.43,18.43,0,0,1-.19,4.75,3.94,3.94,0,0,1-3.07,3,1,1,0,0,0-1.16.85c-.06.84,1,.9,1.63.94,1.25.08,2.53-.08,3.78-.11,1.6,0,3.21-.06,4.81-.07,3.12,0,6.23.18,9.35.15.91,0,2.24.14,3-.43.65-.47.24-1-.34-1.26l-.07,0h0a4.18,4.18,0,0,1-3.43-3c-.45-1.4-.1-3-.36-4.46,1.65.05,3.31,0,5,0,1.17,0,2.35,0,3.52-.05l-.67.49c-.09.06,0,.18.11.12l.82-.62.78,0a9.43,9.43,0,0,0-1.15.94c-.09.08,0,.21.12.13a9.5,9.5,0,0,1,1.44-1.08c2.34-.07,4.69-.16,7-.17,1.31.17,3.45.13,4.44-.82.83-.8.92-3.56.73-4.6h0c0-.67,0-1.24,0-1.93,0-1.29-.18-2.57-.07-3.85.25-2.78-.14-5.56,0-8.33S183.35,317.62,183.32,315ZM161,347.88a4.44,4.44,0,0,0,3.51,2.83.19.19,0,0,0,.13,0c.38.26.12.49-.29.61a6.86,6.86,0,0,1-1.63.13c-1.08,0-2.15,0-3.23,0-2,0-4.08-.14-6.12-.13s-4.07,0-6.1.1l-2.34.12a8,8,0,0,1-1.29,0c-.44,0-.63-.19-.57-.7a.43.43,0,0,1,.24-.14,4,4,0,0,0,3.39-2.19c1-1.85.85-4,.64-6h0c2-.08,3.91-.26,5.86-.24.59,0,1.18,0,1.77.07-.64.36-1.28.71-1.91,1.09,0,0,0,.1,0,.07a12.41,12.41,0,0,1,1.27-.62,3.61,3.61,0,0,0,1-.51l.7.06a5.24,5.24,0,0,0-2,1,.11.11,0,0,0,.15.16,12.38,12.38,0,0,1,2.51-1.14l1.12.11c-.84.31-1.59.82-2.45,1.08a.09.09,0,0,0,0,.17,4.85,4.85,0,0,0,1.13-.45,10.73,10.73,0,0,1,1.71-.65.11.11,0,0,0,.09-.11l1,.08a22.17,22.17,0,0,0-2.38,1.21.05.05,0,0,0,0,.1,7.2,7.2,0,0,0,1.21-.51,19.29,19.29,0,0,1,1.84-.76l.39,0v0c-.8.52-1.69.93-2.44,1.51-.11.08,0,.24.15.15a22.71,22.71,0,0,1,2.33-1.28c0,.12,0,.23,0,.35s-.25.17-.37.26a3.88,3.88,0,0,1-.63.35c-.09,0,0,.16,0,.17a1.81,1.81,0,0,0,1-.42A11,11,0,0,0,161,347.88Zm21.1-6.86c-.61,1.05-2.29,1-3.36.84a.24.24,0,0,0-.12,0h-.17c-2.22,0-4.44.12-6.66.2l.68-.42a.17.17,0,1,0-.2-.27c-.32.25-.65.48-1,.7l-.85,0c.4-.28.81-.56,1.22-.82.07-.05.08-.19,0-.21-.28-.06-.61.35-.79.5s-.45.37-.68.54c-1.34,0-2.68.07-4,.07-2.12,0-4.25.06-6.37,0s-4.17-.39-6.26-.43-4.3.2-6.44.27-4.32.09-6.49.08-4.16-.14-6.25-.19h-1c-1.66-.15-3.38.21-5,.2-1.12,0-2.47-.16-2.84-1.42-.11-.36-.12-.72-.21-1.14a3.56,3.56,0,0,1-.05-.68,4.45,4.45,0,0,0,0-.73h0a.07.07,0,0,0,0-.05c0-2-.2-4-.27-6a.16.16,0,0,0,.12-.08c.49-.94.81-2,1.26-2.94,0-.11-.1-.21-.16-.1-.44.85-.81,1.74-1.23,2.61,0-.4,0-.8,0-1.19V330a.15.15,0,0,0,.17-.09c.48-1.13,1.08-2.22,1.5-3.37,0-.14-.16-.19-.21-.06-.41,1-1.06,2-1.44,3l0-1.34c.65-1.25,1.33-2.5,1.92-3.79,0-.11-.1-.2-.16-.1-.54,1.09-1.17,2.13-1.74,3.19,0-.25,0-.5,0-.75a27.53,27.53,0,0,0,1.87-3.77c0-.11-.13-.16-.17-.05a28.52,28.52,0,0,1-1.68,3.13c0-.37,0-.74,0-1.1.35-.6.55-1.27.87-1.88a16.28,16.28,0,0,0,.87-1.78c0-.11-.14-.16-.18-.05-.44,1.05-1.07,2-1.55,3v-1.34h0a17,17,0,0,0,.81-1.52,12.62,12.62,0,0,0,.93-1.74c0-.12-.15-.18-.2-.06a9.21,9.21,0,0,1-.95,1.67c-.23.35-.39.74-.59,1.1,0-.29,0-.57,0-.86l0,0a24.83,24.83,0,0,0,1.82-3.26c0-.09-.12-.17-.16-.07a29.64,29.64,0,0,1-1.7,2.87c0-.29,0-.59,0-.88l0,0a32.81,32.81,0,0,0,1.72-3.27c0-.11-.1-.2-.16-.1-.5.95-1.15,1.87-1.6,2.85v-1l0,0a31.47,31.47,0,0,0,1.61-3.3c0-.07-.07-.14-.11-.06-.47,1-1.07,1.9-1.53,2.88,0-.43,0-.85,0-1.28h0c.34-.49.56-1.06.91-1.55a4.09,4.09,0,0,0,.82-1.52s-.06-.06-.07,0a23,23,0,0,1-1.66,2.61c0-.22,0-.45,0-.67.52-.91,1-1.82,1.54-2.74a.08.08,0,0,0-.14-.08c-.45.77-1,1.52-1.38,2.3,0-.18,0-.35,0-.53s0-.23,0-.35l0,0c.47-.87,1-1.68,1.56-2.52.07-.11-.11-.22-.19-.11-.46.7-1,1.39-1.38,2.12.08-2.22.18-4.45.07-6.67,0,0,0,0,0-.07a4.62,4.62,0,0,1,.22-1.85,4.91,4.91,0,0,1,.73-.94l.1-.09,0,0a4.5,4.5,0,0,1,2.25-.41c2.06.21,4.15.17,6.22.21l6.57.11c4.25.05,8.5,0,12.75-.21s8.42-.3,12.64-.18c4,.12,8.07.25,12.12.28h0a8.39,8.39,0,0,1,2.56.28,2.74,2.74,0,0,1,1.14,2.52.21.21,0,0,0,0,.11c0,2.65.13,5.3.18,7.95s-.18,5.31-.33,8,.25,5.39.05,8.08c-.1,1.3.11,2.61.09,3.91s0,2.29,0,3.56h0A7.12,7.12,0,0,1,182.09,341Z" transform="translate(-123.79 -301.88)"/><path class="cls-1" d="M179,335.59a2.45,2.45,0,0,0,.81-1,3.85,3.85,0,0,0,.31-1.89,16.71,16.71,0,0,1,.05-2.57,20,20,0,0,0,.11-3c0-2.15.18-4.3.17-6.46s-.24-4.31-.26-6.46c0-1.45-.14-2.87-.21-4.33,0-.65,0-1.3,0-1.95a1.52,1.52,0,0,0-.5-1.31,3.47,3.47,0,0,0-2.3-.47l-.07,0c-1.78,0-3.55.17-5.33.23-2,.07-3.93-.06-5.89-.12-4.1-.14-8.2,0-12.3,0s-8.09-.08-12.13-.1c-1.95,0-3.89,0-5.84,0-1.31,0-2.64.21-4,.23a4,4,0,0,0-3.18.44,2.81,2.81,0,0,0-.85,2.63c-.08,1.83.16,3.67,0,5.5a61.92,61.92,0,0,0-.06,6.39c0,2.2,0,4.39-.11,6.59a29.56,29.56,0,0,0,0,3.26,18.58,18.58,0,0,1,.27,3,.25.25,0,0,0,0,.09A1.45,1.45,0,0,0,128.9,336a6.79,6.79,0,0,0,2.38.1c1-.05,2-.08,3-.16,2.47,0,4.94.2,7.42.14,2,0,4-.18,6-.23s4,.06,6,.11c4.07.12,8.15,0,12.22,0,2,0,4.07.05,6.11.16a26.32,26.32,0,0,0,4.35.1A5.61,5.61,0,0,0,179,335.59Zm-7.28.05c-2-.1-4.07-.13-6.11-.14-4.07,0-8.14.07-12.21-.05-2-.05-4-.15-6-.09s-4,.19-6,.23c-3.44.08-7-.57-10.44.07h-.31a3.54,3.54,0,0,1-2-.27c-.43-.24-.41-.72-.44-1.17a.14.14,0,0,0,0-.07c0-.93-.21-1.85-.25-2.79s0-2.17,0-3.25c0-2.2.13-4.39.12-6.59s-.13-4.28,0-6.41a34.38,34.38,0,0,0-.09-6,2.66,2.66,0,0,1,.79-2.09,2.19,2.19,0,0,1,1.63-.42,7.33,7.33,0,0,0,1.41.15h.27c1,0,2-.12,3-.13,1.93,0,3.87,0,5.81,0,4.14,0,8.28.12,12.43.11s8.21-.13,12.31,0c2,.05,3.92.15,5.89.13,1.62,0,3.24-.17,4.86-.22a7.55,7.55,0,0,1,2.65.16c.61.29.49,1.05.5,1.61s0,.83,0,1.25c0,1.44.05,2.79.09,4.22,0,2.23.22,4.47.25,6.7s-.15,4.49-.15,6.74a18.3,18.3,0,0,1-.16,3,19.94,19.94,0,0,0,0,2.54c-.19,1-.08,1.87-1,2.47a5.61,5.61,0,0,1-2.35.48A44.08,44.08,0,0,1,171.74,335.64Z" transform="translate(-123.79 -301.88)"/><path class="cls-1" d="M132.17,336.42a8.27,8.27,0,0,1-1.86,0A3.77,3.77,0,0,1,128,336c-.8-.65-.47-2.24-.55-3.15,0-.06-.09-.06-.09,0-.14,1.1-.38,2.46.42,3.37a2.54,2.54,0,0,0,1.75.56,12.37,12.37,0,0,0,2.72,0C132.45,336.69,132.37,336.38,132.17,336.42Z" transform="translate(-123.79 -301.88)"/><path class="cls-1" d="M130.53,337.08a7.41,7.41,0,0,1-2.3-.18,2,2,0,0,1-1.29-2c0-.12-.17-.12-.19,0a2.22,2.22,0,0,0,.82,2,5,5,0,0,0,3,.5C130.72,337.39,130.73,337.07,130.53,337.08Z" transform="translate(-123.79 -301.88)"/><path class="cls-1" d="M141.61,343c1.58,0,3.17,0,4.75,0a.15.15,0,0,0,0-.29c-1.49,0-3,.07-4.45.05l-2.07,0a7.4,7.4,0,0,1-1.94-.06s-.06.05,0,.06A12.19,12.19,0,0,0,141.61,343Z" transform="translate(-123.79 -301.88)"/><path class="cls-1" d="M146.53,343.54c.16,0,.13-.3,0-.29-2,.16-4-.23-6,.14-.07,0,0,.11,0,.1C142.49,343.15,144.55,343.81,146.53,343.54Z" transform="translate(-123.79 -301.88)"/><path class="cls-1" d="M144.09,344.05c.8,0,1.6,0,2.4,0,.19,0,.2-.31,0-.31-1.49,0-3,.19-4.46.18-.09,0-.08.12,0,.13A20.24,20.24,0,0,0,144.09,344.05Z" transform="translate(-123.79 -301.88)"/><path class="cls-1" d="M143.64,344.48c-.11,0-.12.18,0,.18a23,23,0,0,1,2.87.16c.22,0,.23-.33,0-.34A21.29,21.29,0,0,0,143.64,344.48Z" transform="translate(-123.79 -301.88)"/><path class="cls-1" d="M179.23,334a.16.16,0,0,0-.3-.08c-.46,1.43-2.86,1.09-4,1.05-1.58-.06-3.15-.18-4.73-.2a89.4,89.4,0,0,0-10,.24c-.06,0-.06.1,0,.1a46,46,0,0,0,5.63,0c2-.05,4-.07,6,0a45.68,45.68,0,0,0,5.23.15C178,335.22,178.91,335.06,179.23,334Z" transform="translate(-123.79 -301.88)"/><path class="cls-1" d="M162.33,334.51c3.86,0,7.73-.13,11.59.05,1.3.06,4.28.77,4.85-1,.06-.2-.25-.28-.31-.09-.31,1-1.81.9-2.63.88s-1.84-.13-2.77-.14a93.65,93.65,0,0,0-10.73.13C162.25,334.39,162.24,334.51,162.33,334.51Z" transform="translate(-123.79 -301.88)"/><path class="cls-1" d="M179,320.67a.15.15,0,0,0,.29,0c0-2.07,0-4.15-.06-6.22,0-1,0-2-.1-3a14.33,14.33,0,0,1,0-3.14c0-.07-.1-.11-.12,0a23.66,23.66,0,0,0-.09,5.58C179,316.11,179,318.39,179,320.67Z" transform="translate(-123.79 -301.88)"/><path class="cls-1" d="M181.13,302.68c-1.83-.55-3.84-.1-5.7-.08a.17.17,0,0,0,0,.34c2.59,0,7.21-1.07,8,2.38s.19,7.19.23,10.72c0,0,.09,0,.09,0,.08-3.7,1-7.72-.13-11.34A3.36,3.36,0,0,0,181.13,302.68Z" transform="translate(-123.79 -301.88)"/><path class="cls-1" d="M184.36,305a2.66,2.66,0,0,0-.86-2,4.75,4.75,0,0,0-2.2-.76,17.36,17.36,0,0,0-3.45-.3.17.17,0,0,0,0,.34,14.77,14.77,0,0,1,4.9.66c1.17.42,1.26,1.51,1.39,2.57.1.9.36,1.76.4,2.68,0,.08.14.09.14,0C184.67,307.06,184.44,306,184.36,305Z" transform="translate(-123.79 -301.88)"/><path class="cls-1" d="M154.11,305.42l.11.05h.16c.15,0,.24-.2.26-.34a.42.42,0,0,0-.07-.34c-.13-.16-.39-.05-.51.07A.35.35,0,0,0,154.11,305.42Zm.09-.4.09-.08.07,0h0l0,0,0,.07a.4.4,0,0,1-.08.28l0,0,0,0-.11,0A.34.34,0,0,1,154.2,305Z" transform="translate(-123.79 -301.88)"/><path class="cls-1" d="M128.85,302.88a15.4,15.4,0,0,0,5.16.19c2.09-.07,4.19.06,6.27.08s4.13,0,6.19,0c.92,0,1.84,0,2.76,0a17.16,17.16,0,0,0,2.59-.1c.18,0,.11-.32-.07-.28a19.16,19.16,0,0,1-2.51.1c-.92.05-1.84,0-2.77,0h-5.85c-2,0-4-.09-5.94-.09a33.91,33.91,0,0,1-5.79-.05A.07.07,0,0,0,128.85,302.88Z" transform="translate(-123.79 -301.88)"/><path class="cls-1" d="M132.78,302.34a81.1,81.1,0,0,0,8.4.12q4.22,0,8.43,0a.15.15,0,0,0,0-.29h-8.44a75.92,75.92,0,0,0-8.4.08A0,0,0,0,0,132.78,302.34Z" transform="translate(-123.79 -301.88)"/><path class="cls-1" d="M181.94,337.89a4.73,4.73,0,0,1-.91,3c-.57.57-1.67.49-2.41.5s-1.6.11-2.39.18c-.06,0-.06.1,0,.1a26.93,26.93,0,0,0,3,0,3.22,3.22,0,0,0,1.88-.44c1-.76,1-2.17,1.17-3.31C182.28,337.69,182,337.68,181.94,337.89Z" transform="translate(-123.79 -301.88)"/><path class="cls-1" d="M178.58,341.26a3.17,3.17,0,0,0,2.94-3.14.08.08,0,1,0-.15,0,3.1,3.1,0,0,1-2.78,2.8C178.37,341,178.37,341.29,178.58,341.26Z" transform="translate(-123.79 -301.88)"/><path class="cls-1" d="M164.61,352c-.89.06-1.76.26-2.66.28s-1.82,0-2.73,0-1.85-.06-2.77-.07a11.85,11.85,0,0,1-2.45.07.06.06,0,0,0,0,.12,5.37,5.37,0,0,0,1.92.06c1,0,2,.07,3,.1a31.46,31.46,0,0,0,5.74-.25C164.81,352.24,164.78,352,164.61,352Z" transform="translate(-123.79 -301.88)"/><path class="cls-1" d="M164.25,352.67c-2.72.05-5.54-.32-8.24.07a.06.06,0,0,0,0,.12c2.73.09,5.49.17,8.22.13C164.44,353,164.45,352.67,164.25,352.67Z" transform="translate(-123.79 -301.88)"/><path class="cls-1" d="M155.33,338.89c-.17,0-.37,0-.44-.22a.56.56,0,0,1,.06-.33l0,0c.06,0,0-.15-.09-.11a.25.25,0,0,1-.33,0c-.13-.11-.07-.24.05-.33s0-.14-.07-.13-.26,0-.32-.16,0-.26.09-.3.05-.1,0-.11h0a0,0,0,0,0,0-.06c-1.27-.52-2.32,1.09-1.77,2.2a1.6,1.6,0,0,0,1.31.91,1.46,1.46,0,0,0,1.47-.78.93.93,0,0,0,.16-.41C155.42,338.94,155.38,338.9,155.33,338.89ZM153.92,340a1.49,1.49,0,0,1-1.11-.51,1.42,1.42,0,0,1-.21-.29c.09,0,.21.07.23.18a.24.24,0,0,0,.15.16.67.67,0,0,0,.2,0c.11,0,.18.15.25.22a.39.39,0,0,0,.21.06.28.28,0,0,0,.13,0c.2-.15.26,0,.4.05a.2.2,0,0,0,.21,0c.12-.09.15-.21.37-.11A1.21,1.21,0,0,1,153.92,340Zm1.25-.76a.09.09,0,0,0-.06,0,2.84,2.84,0,0,1-.29.36c-.15,0-.23-.11-.37,0s-.12.18-.3.08l-.1-.07c-.07,0-.15-.06-.21,0s-.29.22-.44,0c-.05-.08,0-.05-.08-.11a.38.38,0,0,0-.21,0c-.16,0-.19-.16-.27-.25s-.2,0-.26-.09a.3.3,0,0,1,0-.1v0c-.28-.95.57-2.16,1.63-1.82-.18.15-.11.69.22.72a.31.31,0,0,0,0,.34.32.32,0,0,1,.34.54.51.51,0,0,0,.47.28A.85.85,0,0,1,155.17,339.24Z" transform="translate(-123.79 -301.88)"/><path class="cls-1" d="M153.88,337.88l-.06,0a.52.52,0,0,0-.54.34.6.6,0,0,0,.36.76.47.47,0,0,0,.68-.38A.62.62,0,0,0,153.88,337.88Zm-.17,1a.44.44,0,0,1-.3-.54.43.43,0,0,1,.43-.3h0a.46.46,0,0,1,.34.49A.33.33,0,0,1,153.71,338.84Z" transform="translate(-123.79 -301.88)"/><path class="cls-1" d="M152.77,338.56a1.4,1.4,0,0,1-.09.17s0,.07,0,0a1.34,1.34,0,0,0,.07-.18S152.77,338.54,152.77,338.56Z" transform="translate(-123.79 -301.88)"/><path class="cls-1" d="M153,338.19a.52.52,0,0,0-.17,0s0,0,0,0H153A0,0,0,0,0,153,338.19Z" transform="translate(-123.79 -301.88)"/><path class="cls-1" d="M153.25,337.8s0-.07,0-.11,0,0,0,0a.28.28,0,0,0,0,.13S153.26,337.83,153.25,337.8Z" transform="translate(-123.79 -301.88)"/><path class="cls-1" d="M152.86,337.88H153a0,0,0,0,0,0-.06h-.13S152.82,337.87,152.86,337.88Z" transform="translate(-123.79 -301.88)"/><path class="cls-1" d="M153.7,337.49s0-.06,0-.1,0,0,0,0,0,.07,0,.11S153.7,337.52,153.7,337.49Z" transform="translate(-123.79 -301.88)"/><path class="cls-1" d="M153.11,338.94H153s0,.05,0,.05h.11S153.15,338.94,153.11,338.94Z" transform="translate(-123.79 -301.88)"/><path class="cls-1" d="M153.44,339.2c0,.05,0,.1,0,.13s0,0,0,0a.43.43,0,0,1,0-.11S153.43,339.17,153.44,339.2Z" transform="translate(-123.79 -301.88)"/><path class="cls-1" d="M154,339.32s-.07,0,0,0l.06.1s0,0,0,0S154.05,339.36,154,339.32Z" transform="translate(-123.79 -301.88)"/><path class="cls-1" d="M154.55,339.12l-.13,0s0,0,0,0l.12,0A0,0,0,0,0,154.55,339.12Z" transform="translate(-123.79 -301.88)"/><path class="cls-1" d="M154.55,338.9s0-.07,0-.11-.06,0,0,0a.28.28,0,0,0,0,.12S154.56,338.93,154.55,338.9Z" transform="translate(-123.79 -301.88)"/><path class="cls-1" d="M154.79,339.26l-.07,0s0,0,0,0l.06,0S154.82,339.25,154.79,339.26Z" transform="translate(-123.79 -301.88)"/><path class="cls-1" d="M154.17,339.1a.14.14,0,0,0,0,.07s0,0,0,0,0,0,0-.05S154.19,339.07,154.17,339.1Z" transform="translate(-123.79 -301.88)"/><path class="cls-1" d="M153.85,337.77a.16.16,0,0,0,.09,0,0,0,0,1,0,0-.05l-.09,0S153.82,337.76,153.85,337.77Z" transform="translate(-123.79 -301.88)"/><path class="cls-1" d="M153.37,337.43l.08,0s0,0,0,0l-.09,0S153.34,337.45,153.37,337.43Z" transform="translate(-123.79 -301.88)"/><path class="cls-1" d="M154.52,338.57s.08,0,0,0l0,0a0,0,0,0,0-.05,0Z" transform="translate(-123.79 -301.88)"/><path class="cls-1" d="M154.91,339.19s0-.05,0-.06,0-.07,0,0a.25.25,0,0,1,0,.07A0,0,0,0,0,154.91,339.19Z" transform="translate(-123.79 -301.88)"/><path class="cls-1" d="M154.34,339.42l0,0s0,.08.06,0l0,0S154.36,339.38,154.34,339.42Z" transform="translate(-123.79 -301.88)"/><path class="cls-1" d="M153.19,339.22h0s-.06.06,0,.07h0S153.23,339.23,153.19,339.22Z" transform="translate(-123.79 -301.88)"/><path class="cls-1" d="M153,338.59h0s0,0,.05,0h0C153.09,338.56,153,338.54,153,338.59Z" transform="translate(-123.79 -301.88)"/><path class="cls-1" d="M152.65,338.27s-.06.05,0,.06S152.69,338.28,152.65,338.27Z" transform="translate(-123.79 -301.88)"/><path class="cls-1" d="M153.54,337.77s0,0,0,0A0,0,0,0,0,153.54,337.77Z" transform="translate(-123.79 -301.88)"/><path class="cls-1" d="M153.11,337.56s.06-.05,0-.06A0,0,0,1,0,153.11,337.56Z" transform="translate(-123.79 -301.88)"/><path class="cls-1" d="M153.89,337.29a0,0,0,0,0,0,0S153.86,337.28,153.89,337.29Z" transform="translate(-123.79 -301.88)"/><path class="cls-1" d="M153.77,339.32s-.06.06,0,.07A0,0,0,1,0,153.77,339.32Z" transform="translate(-123.79 -301.88)"/><path class="cls-1" d="M148.47,341c-5.43.1-10.85.29-16.28.37a.09.09,0,0,0,0,.17c5.42.31,10.87-.15,16.29-.23C148.66,341.31,148.67,341,148.47,341Z" transform="translate(-123.79 -301.88)"/><path class="cls-1" d="M124.19,326.67a14,14,0,0,0-.13-4.48s-.09,0-.08,0c.23,3-.27,5.94-.18,8.91,0,1.53.26,3.06.33,4.58s.12,3.31.16,5c0,.2.32.21.31,0-.1-3.19-.34-6.36-.5-9.54A44,44,0,0,1,124.19,326.67Z" transform="translate(-123.79 -301.88)"/><path class="cls-1" d="M137.62,328.76h-.51a2.54,2.54,0,0,1-.59-.05c-.17,0-.26-.19-.28-.45h0a1.25,1.25,0,0,1,0-.4,4.13,4.13,0,0,1,.18-.44l.37-.49.05-.05v0c.28-.31.6-.64,1-1l1.17-1.11,1.55-1.43c.55-.51,1.09-1,1.63-1.56s1.07-1.09,1.57-1.65.95-1.12,1.36-1.67a11.5,11.5,0,0,0,1-1.61,5.24,5.24,0,0,0,.51-1.52,2.92,2.92,0,0,0,0-.51,1.39,1.39,0,0,0-.08-.46.93.93,0,0,0-.26-.39,1.26,1.26,0,0,0-.49-.27,3.58,3.58,0,0,0-1.2.06,7.07,7.07,0,0,0-1.41.47,8.81,8.81,0,0,0-1.43.79,8,8,0,0,0-1.27,1,5.68,5.68,0,0,0-.93,1.18,2.77,2.77,0,0,0-.42,1.26v0a.55.55,0,0,1,0,.37.2.2,0,0,1-.16.14.38.38,0,0,1-.23,0,.74.74,0,0,1-.22-.14,1.62,1.62,0,0,1-.4-.78,2.36,2.36,0,0,1,0-.92,4.6,4.6,0,0,1,.34-1.1,9.19,9.19,0,0,1,.61-1.11,9.72,9.72,0,0,1,.76-1,7.16,7.16,0,0,1,.78-.78,7.81,7.81,0,0,1,2.28-1.39,4.91,4.91,0,0,1,2.09-.35,3.47,3.47,0,0,1,1.43.4,3.08,3.08,0,0,1,1.06,1,4,4,0,0,1,.58,1.49,5.5,5.5,0,0,1,0,1.94c0,.26-.09.53-.16.81a7,7,0,0,1-.27.85,12.13,12.13,0,0,1-1.21,2.38,26,26,0,0,1-1.63,2.23c-.58.71-1.17,1.37-1.77,2s-1.16,1.18-1.67,1.67l-.56.52,1.66.26,1.3.2a9.05,9.05,0,0,0,1,.06,7.76,7.76,0,0,0,1.15-.1,2.2,2.2,0,0,0,.69-.15l.45-.18.19-.09,0,0c.13,0,.17.08.14.29a2.5,2.5,0,0,1-.32,1,2.78,2.78,0,0,1-.64.72,2.9,2.9,0,0,1-.79.47,3.25,3.25,0,0,1-.79.22,5.86,5.86,0,0,1-.75,0l-.85,0c-.46,0-1-.08-1.48-.14l-1.56-.21-1.36-.19C138.38,328.83,138,328.78,137.62,328.76Z" transform="translate(-123.79 -301.88)"/><path class="cls-1" d="M151.79,316.85a3.61,3.61,0,0,1,1.39-.1,2.49,2.49,0,0,1,1.77,1.18,4.3,4.3,0,0,1,.51,1,10.16,10.16,0,0,1,.33,1.18c.08.41.15.82.21,1.21a9.6,9.6,0,0,1,.12,1.39,9.76,9.76,0,0,1-.09,1.52,10.31,10.31,0,0,1-.33,1.54,6.17,6.17,0,0,1-.62,1.38,4.1,4.1,0,0,1-1,1.08,3.38,3.38,0,0,1-1.33.65,2.53,2.53,0,0,1-1.25,0,2.64,2.64,0,0,1-1-.49,3.59,3.59,0,0,1-.77-.87,7.26,7.26,0,0,1-.57-1.11,9.93,9.93,0,0,1-.4-1.2,11.68,11.68,0,0,1-.23-1.15,8.72,8.72,0,0,1-.07-1.3,10.46,10.46,0,0,1,.5-2.94,6.7,6.7,0,0,1,.64-1.35,4.2,4.2,0,0,1,.91-1A3.09,3.09,0,0,1,151.79,316.85Zm1.52,1.6a1,1,0,0,0-.75.38,4.41,4.41,0,0,0-.66,1,9.69,9.69,0,0,0-.54,1.33c-.16.49-.29,1-.41,1.42s-.21.88-.28,1.26a6,6,0,0,0-.13.86c0,.15,0,.35,0,.58s0,.49,0,.75,0,.53.06.79a2.53,2.53,0,0,0,.18.72,1.49,1.49,0,0,0,.35.52.85.85,0,0,0,.58.2,1.15,1.15,0,0,0,.72-.27,3.13,3.13,0,0,0,.65-.73,6.79,6.79,0,0,0,.58-1.08,12.9,12.9,0,0,0,.47-1.29c.13-.46.25-.93.34-1.41a12,12,0,0,0,.21-1.39,9.09,9.09,0,0,0,0-1.46,4.33,4.33,0,0,0-.2-1.14,1.81,1.81,0,0,0-.43-.75A1,1,0,0,0,153.31,318.45Z" transform="translate(-123.79 -301.88)"/><path class="cls-1" d="M157.82,326.32l-.22.05-.18.06a1.71,1.71,0,0,1-.46.08c-.14,0-.24-.09-.31-.29h0a1,1,0,0,1-.05-.32,2,2,0,0,1,.05-.37l.18-.46,0,0h0c.15-.3.33-.61.54-.95l.67-1.09.9-1.42c.33-.5.64-1,1-1.53s.59-1.06.87-1.59.51-1.05.71-1.56a9.09,9.09,0,0,0,.45-1.44,4.82,4.82,0,0,0,.09-1.28c0-.14-.05-.27-.08-.4a1.33,1.33,0,0,0-.16-.34.93.93,0,0,0-.27-.25,1.06,1.06,0,0,0-.44-.1,2.45,2.45,0,0,0-.91.29,5.53,5.53,0,0,0-1,.64,7.2,7.2,0,0,0-.94.9,6.43,6.43,0,0,0-.77,1.05,5,5,0,0,0-.48,1.1,2.11,2.11,0,0,0-.06,1.05h0a.45.45,0,0,1,.07.29.18.18,0,0,1-.09.14.27.27,0,0,1-.18,0,.66.66,0,0,1-.2-.06,1.3,1.3,0,0,1-.47-.52,2,2,0,0,1-.2-.71,3.67,3.67,0,0,1,0-.92,5.83,5.83,0,0,1,.24-1,7.41,7.41,0,0,1,.38-.92,5.27,5.27,0,0,1,.44-.76,5.86,5.86,0,0,1,1.48-1.53,4,4,0,0,1,1.53-.7,2.75,2.75,0,0,1,1.18,0,2.39,2.39,0,0,1,1,.54,3,3,0,0,1,.75,1,4.58,4.58,0,0,1,.39,1.49c0,.21,0,.43,0,.66a5.85,5.85,0,0,1,0,.71,10,10,0,0,1-.45,2.08,20.08,20.08,0,0,1-.8,2c-.3.67-.62,1.3-1,1.9s-.65,1.14-1,1.62l-.32.52,1.33-.14,1-.11c.29,0,.55-.1.78-.16a5.51,5.51,0,0,0,.87-.31,2.12,2.12,0,0,0,.5-.25c.12-.1.23-.17.31-.23s.11-.11.13-.11v0c.09,0,.15,0,.16.19a1.85,1.85,0,0,1,0,.85,2.22,2.22,0,0,1-.34.69,2.79,2.79,0,0,1-.51.52,3.45,3.45,0,0,1-.57.33,3.83,3.83,0,0,1-.57.18c-.21.05-.43.1-.67.14s-.75.14-1.16.19l-1.25.16-1.08.13C158.42,326.22,158.1,326.27,157.82,326.32Z" transform="translate(-123.79 -301.88)"/><text class="cls-2" transform="translate(38.66 25.61) rotate(9.97)">1</text></svg>